<?xml version="1.0" encoding="UTF-8"?>
<svg width="159px" height="99px" viewBox="0 0 159 99" version="1.1" xmlns="http://www.w3.org/2000/svg" xmlns:xlink="http://www.w3.org/1999/xlink">
    <title>Steve Logo More Shadow</title>
    <g id="Steve-Logo-More-Shadow" stroke="none" stroke-width="1" fill="none" fill-rule="evenodd">
        <g id="Steve-Logo-Copy" fill-rule="nonzero">
            <path d="M17.6728516,48.6835938 C21.1233724,48.6835938 24.0123698,47.5442708 26.3398438,45.265625 C28.6510417,43.0032552 29.8066406,40.1386719 29.8066406,36.671875 C29.8066406,34.0839844 29.0986328,31.8989258 27.6826172,30.1166992 C26.2666016,28.3344727 24.0286458,26.8248698 20.96875,25.5878906 L20.96875,25.5878906 L17.2089844,24.0498047 C14.4746094,22.9267578 13.1074219,21.445638 13.1074219,19.6064453 C13.1074219,18.2718099 13.6282552,17.1650391 14.6699219,16.2861328 C15.7115885,15.3909505 17.0218099,14.9433594 18.6005859,14.9433594 C19.8863932,14.9433594 20.9361979,15.203776 21.75,15.7246094 C22.53125,16.1803385 23.3531901,17.156901 24.2158203,18.6542969 L24.2158203,18.6542969 L28.8300781,15.9199219 C26.3886719,11.688151 22.9951172,9.57226562 18.6494141,9.57226562 C15.4267578,9.57226562 12.7330729,10.5325521 10.5683594,12.453125 C8.40364583,14.3574219 7.32128906,16.7255859 7.32128906,19.5576172 C7.32128906,23.7568359 9.90104167,26.9469401 15.0605469,29.1279297 L15.0605469,29.1279297 L18.6982422,30.6416016 C19.6422526,31.0485026 20.4560547,31.4757487 21.1396484,31.9233398 C21.8232422,32.370931 22.3806966,32.8510742 22.8120117,33.3637695 C23.2433268,33.8764648 23.5607096,34.4379883 23.7641602,35.0483398 C23.9676107,35.6586914 24.0693359,36.3300781 24.0693359,37.0625 C24.0693359,38.8854167 23.4833984,40.3909505 22.3115234,41.5791016 C21.1396484,42.7672526 19.6666667,43.3613281 17.8925781,43.3613281 C15.6464844,43.3613281 13.9375,42.547526 12.765625,40.9199219 C12.1145833,40.0735677 11.6588542,38.5436198 11.3984375,36.3300781 L11.3984375,36.3300781 L5.63671875,37.5996094 C6.15755208,41.1152344 7.46777344,43.8414714 9.56738281,45.7783203 C11.6995443,47.7151693 14.4013672,48.6835938 17.6728516,48.6835938 Z M50.0753906,48 L50.0753906,15.6513672 L58.7179687,15.6513672 L58.7179687,10.3046875 L35.7199219,10.3046875 L35.7199219,15.6513672 L44.3869141,15.6513672 L44.3869141,48 L50.0753906,48 Z M86.896875,48 L86.896875,42.6533203 L71.7845703,42.6533203 L71.7845703,30.0556641 L86.4574219,30.0556641 L86.4574219,24.7089844 L71.7845703,24.7089844 L71.7845703,15.6513672 L86.896875,15.6513672 L86.896875,10.3046875 L66.0960937,10.3046875 L66.0960937,48 L86.896875,48 Z M108.874609,50.8320312 L125.793555,10.3046875 L119.567969,10.3046875 L108.99668,36.4277344 L98.571875,10.3046875 L92.3462891,10.3046875 L108.874609,50.8320312 Z M153.581836,48 L153.581836,42.6533203 L138.469531,42.6533203 L138.469531,30.0556641 L153.142383,30.0556641 L153.142383,24.7089844 L138.469531,24.7089844 L138.469531,15.6513672 L153.581836,15.6513672 L153.581836,10.3046875 L132.781055,10.3046875 L132.781055,48 L153.581836,48 Z M21.4570312,96.6835938 C25.5097656,96.6835938 28.9277344,95.2513021 31.7109375,92.3867188 C34.1848958,89.8151042 35.421875,86.5436198 35.421875,82.5722656 L35.421875,82.5722656 L35.421875,58.3046875 L29.7333984,58.3046875 L29.7333984,81.0097656 C29.7333984,84.297526 29.2044271,86.6656901 28.1464844,88.1142578 C26.5677083,90.2789714 24.3378906,91.3613281 21.4570312,91.3613281 C18.5924479,91.3613281 16.3707682,90.2789714 14.7919922,88.1142578 C13.7340495,86.616862 13.2050781,84.2486979 13.2050781,81.0097656 L13.2050781,81.0097656 L13.2050781,58.3046875 L7.51660156,58.3046875 L7.51660156,82.5722656 C7.51660156,86.5436198 8.75358073,89.8151042 11.2275391,92.3867188 C13.9944661,95.2513021 17.4042969,96.6835938 21.4570312,96.6835938 Z M62.0576172,96.6835938 C65.6383464,96.6835938 69.0563151,95.7639974 72.3115234,93.9248047 L72.3115234,93.9248047 L72.3115234,87.0644531 C71.3837891,87.8457031 70.5008138,88.5130208 69.6625977,89.0664062 C68.8243815,89.6197917 68.0146484,90.0592448 67.2333984,90.3847656 C65.8336589,91.0358073 64.1328125,91.3613281 62.1308594,91.3613281 C58.2571615,91.3613281 54.9856771,90.0022786 52.3164062,87.2841797 C49.6471354,84.5660807 48.3125,81.2294922 48.3125,77.2744141 C48.3125,73.2705078 49.6471354,69.8850911 52.3164062,67.1181641 C54.969401,64.3349609 58.2327474,62.9433594 62.1064453,62.9433594 C65.6220703,62.9433594 69.023763,64.3186849 72.3115234,67.0693359 L72.3115234,67.0693359 L72.3115234,60.3310547 C69.1539714,58.491862 65.882487,57.5722656 62.4970703,57.5722656 C56.2958984,57.5722656 51.2421875,59.8753255 47.3359375,64.4814453 C44.1621094,68.2412109 42.5751953,72.5218099 42.5751953,77.3232422 C42.5751953,82.6780599 44.4713542,87.2516276 48.2636719,91.0439453 C52.0722656,94.8037109 56.6702474,96.6835938 62.0576172,96.6835938 Z M85.1777344,96 L85.1777344,78.3974609 L101.4375,78.3974609 L101.4375,96 L107.125977,96 L107.125977,58.3046875 L101.4375,58.3046875 L101.4375,73.0507812 L85.1777344,73.0507812 L85.1777344,58.3046875 L79.4892578,58.3046875 L79.4892578,96 L85.1777344,96 Z M133.786133,96.6835938 C139.287435,96.6835938 143.983073,94.7874349 147.873047,90.9951172 C151.746745,87.2190755 153.683594,82.6210938 153.683594,77.2011719 C153.683594,71.8138021 151.754883,67.1995443 147.897461,63.3583984 C144.056315,59.5172526 139.450195,57.5966797 134.079102,57.5966797 C128.642904,57.5966797 123.987956,59.5009766 120.114258,63.3095703 C116.224284,67.1181641 114.279297,71.6754557 114.279297,76.9814453 C114.279297,83.0198568 116.411458,87.9026693 120.675781,91.6298828 C124.549479,94.9990234 128.919596,96.6835938 133.786133,96.6835938 Z M133.859375,91.3613281 C130.213542,91.3613281 126.999023,90.0185547 124.21582,87.3330078 C121.416341,84.6474609 120.016602,81.2213542 120.016602,77.0546875 C120.016602,73.0833333 121.367513,69.7467448 124.069336,67.0449219 C126.771159,64.3105469 130.083333,62.9433594 134.005859,62.9433594 C137.944661,62.9433594 141.248698,64.3105469 143.917969,67.0449219 C146.603516,69.7630208 147.946289,73.1321615 147.946289,77.1523438 C147.946289,81.1236979 146.58724,84.4928385 143.869141,87.2597656 C141.151042,89.9941406 137.814453,91.3613281 133.859375,91.3613281 Z" id="STEVEUCHO" fill-opacity="0.25" fill="#000000"></path>
            <path d="M14.6728516,45.6835938 C18.1233724,45.6835938 21.0123698,44.5442708 23.3398438,42.265625 C25.6510417,40.0032552 26.8066406,37.1386719 26.8066406,33.671875 C26.8066406,31.0839844 26.0986328,28.8989258 24.6826172,27.1166992 C23.2666016,25.3344727 21.0286458,23.8248698 17.96875,22.5878906 L17.96875,22.5878906 L14.2089844,21.0498047 C11.4746094,19.9267578 10.1074219,18.445638 10.1074219,16.6064453 C10.1074219,15.2718099 10.6282552,14.1650391 11.6699219,13.2861328 C12.7115885,12.3909505 14.0218099,11.9433594 15.6005859,11.9433594 C16.8863932,11.9433594 17.9361979,12.203776 18.75,12.7246094 C19.53125,13.1803385 20.3531901,14.156901 21.2158203,15.6542969 L21.2158203,15.6542969 L25.8300781,12.9199219 C23.3886719,8.68815104 19.9951172,6.57226562 15.6494141,6.57226562 C12.4267578,6.57226562 9.73307292,7.53255208 7.56835938,9.453125 C5.40364583,11.3574219 4.32128906,13.7255859 4.32128906,16.5576172 C4.32128906,20.7568359 6.90104167,23.9469401 12.0605469,26.1279297 L12.0605469,26.1279297 L15.6982422,27.6416016 C16.6422526,28.0485026 17.4560547,28.4757487 18.1396484,28.9233398 C18.8232422,29.370931 19.3806966,29.8510742 19.8120117,30.3637695 C20.2433268,30.8764648 20.5607096,31.4379883 20.7641602,32.0483398 C20.9676107,32.6586914 21.0693359,33.3300781 21.0693359,34.0625 C21.0693359,35.8854167 20.4833984,37.3909505 19.3115234,38.5791016 C18.1396484,39.7672526 16.6666667,40.3613281 14.8925781,40.3613281 C12.6464844,40.3613281 10.9375,39.547526 9.765625,37.9199219 C9.11458333,37.0735677 8.65885417,35.5436198 8.3984375,33.3300781 L8.3984375,33.3300781 L2.63671875,34.5996094 C3.15755208,38.1152344 4.46777344,40.8414714 6.56738281,42.7783203 C8.69954427,44.7151693 11.4013672,45.6835938 14.6728516,45.6835938 Z M47.0753906,45 L47.0753906,12.6513672 L55.7179687,12.6513672 L55.7179687,7.3046875 L32.7199219,7.3046875 L32.7199219,12.6513672 L41.3869141,12.6513672 L41.3869141,45 L47.0753906,45 Z M83.896875,45 L83.896875,39.6533203 L68.7845703,39.6533203 L68.7845703,27.0556641 L83.4574219,27.0556641 L83.4574219,21.7089844 L68.7845703,21.7089844 L68.7845703,12.6513672 L83.896875,12.6513672 L83.896875,7.3046875 L63.0960937,7.3046875 L63.0960937,45 L83.896875,45 Z M105.874609,47.8320312 L122.793555,7.3046875 L116.567969,7.3046875 L105.99668,33.4277344 L95.571875,7.3046875 L89.3462891,7.3046875 L105.874609,47.8320312 Z M150.581836,45 L150.581836,39.6533203 L135.469531,39.6533203 L135.469531,27.0556641 L150.142383,27.0556641 L150.142383,21.7089844 L135.469531,21.7089844 L135.469531,12.6513672 L150.581836,12.6513672 L150.581836,7.3046875 L129.781055,7.3046875 L129.781055,45 L150.581836,45 Z M18.4570312,93.6835938 C22.5097656,93.6835938 25.9277344,92.2513021 28.7109375,89.3867188 C31.1848958,86.8151042 32.421875,83.5436198 32.421875,79.5722656 L32.421875,79.5722656 L32.421875,55.3046875 L26.7333984,55.3046875 L26.7333984,78.0097656 C26.7333984,81.297526 26.2044271,83.6656901 25.1464844,85.1142578 C23.5677083,87.2789714 21.3378906,88.3613281 18.4570312,88.3613281 C15.5924479,88.3613281 13.3707682,87.2789714 11.7919922,85.1142578 C10.7340495,83.616862 10.2050781,81.2486979 10.2050781,78.0097656 L10.2050781,78.0097656 L10.2050781,55.3046875 L4.51660156,55.3046875 L4.51660156,79.5722656 C4.51660156,83.5436198 5.75358073,86.8151042 8.22753906,89.3867188 C10.9944661,92.2513021 14.4042969,93.6835938 18.4570312,93.6835938 Z M59.0576172,93.6835938 C62.6383464,93.6835938 66.0563151,92.7639974 69.3115234,90.9248047 L69.3115234,90.9248047 L69.3115234,84.0644531 C68.3837891,84.8457031 67.5008138,85.5130208 66.6625977,86.0664062 C65.8243815,86.6197917 65.0146484,87.0592448 64.2333984,87.3847656 C62.8336589,88.0358073 61.1328125,88.3613281 59.1308594,88.3613281 C55.2571615,88.3613281 51.9856771,87.0022786 49.3164062,84.2841797 C46.6471354,81.5660807 45.3125,78.2294922 45.3125,74.2744141 C45.3125,70.2705078 46.6471354,66.8850911 49.3164062,64.1181641 C51.969401,61.3349609 55.2327474,59.9433594 59.1064453,59.9433594 C62.6220703,59.9433594 66.023763,61.3186849 69.3115234,64.0693359 L69.3115234,64.0693359 L69.3115234,57.3310547 C66.1539714,55.491862 62.882487,54.5722656 59.4970703,54.5722656 C53.2958984,54.5722656 48.2421875,56.8753255 44.3359375,61.4814453 C41.1621094,65.2412109 39.5751953,69.5218099 39.5751953,74.3232422 C39.5751953,79.6780599 41.4713542,84.2516276 45.2636719,88.0439453 C49.0722656,91.8037109 53.6702474,93.6835938 59.0576172,93.6835938 Z M82.1777344,93 L82.1777344,75.3974609 L98.4375,75.3974609 L98.4375,93 L104.125977,93 L104.125977,55.3046875 L98.4375,55.3046875 L98.4375,70.0507812 L82.1777344,70.0507812 L82.1777344,55.3046875 L76.4892578,55.3046875 L76.4892578,93 L82.1777344,93 Z M130.786133,93.6835938 C136.287435,93.6835938 140.983073,91.7874349 144.873047,87.9951172 C148.746745,84.2190755 150.683594,79.6210938 150.683594,74.2011719 C150.683594,68.8138021 148.754883,64.1995443 144.897461,60.3583984 C141.056315,56.5172526 136.450195,54.5966797 131.079102,54.5966797 C125.642904,54.5966797 120.987956,56.5009766 117.114258,60.3095703 C113.224284,64.1181641 111.279297,68.6754557 111.279297,73.9814453 C111.279297,80.0198568 113.411458,84.9026693 117.675781,88.6298828 C121.549479,91.9990234 125.919596,93.6835938 130.786133,93.6835938 Z M130.859375,88.3613281 C127.213542,88.3613281 123.999023,87.0185547 121.21582,84.3330078 C118.416341,81.6474609 117.016602,78.2213542 117.016602,74.0546875 C117.016602,70.0833333 118.367513,66.7467448 121.069336,64.0449219 C123.771159,61.3105469 127.083333,59.9433594 131.005859,59.9433594 C134.944661,59.9433594 138.248698,61.3105469 140.917969,64.0449219 C143.603516,66.7630208 144.946289,70.1321615 144.946289,74.1523438 C144.946289,78.1236979 143.58724,81.4928385 140.869141,84.2597656 C138.151042,86.9941406 134.814453,88.3613281 130.859375,88.3613281 Z" id="STEVEUCHO" fill="#F6E528"></path>
        </g>
    </g>
</svg>